<?xml version="1.0" standalone="no"?>
<!DOCTYPE svg PUBLIC "-//W3C//DTD SVG 1.1//EN" "http://www.w3.org/Graphics/SVG/1.1/DTD/svg11.dtd" >
<!--
2013-9-30: Created.
-->
<svg>
<metadata>
Created by iconfont
</metadata>
<defs>

<font id="iconfont" horiz-adv-x="1024" >
  <font-face
    font-family="iconfont"
    font-weight="500"
    font-stretch="normal"
    units-per-em="1024"
    ascent="896"
    descent="-128"
  />
    <missing-glyph />
    
    <glyph glyph-name="085shucezhongxin" unicode="&#58970;" d="M957.666734 96.919632c3.145643-18.946514-0.845251-35.967166-11.879562-51.110051s-26.012444-24.299429-44.935422-27.445072L787.314904 0.404462c-18.266016-3.170203-35.168987 0.774643-50.617841 11.808954-15.400758 11.057847-24.697495 26.03598-27.891234 44.959981l-96.444563 611.211583c-1.267876 9.437953-0.845251 18.429745 1.360997 26.951839 2.254344 8.499581 5.869684 16.410762 10.894118 23.642466 5.024433 7.277754 11.504008 13.240559 19.392676 17.983583 7.887644 4.718465 16.527418 8.052396 26.012444 9.954723l112.598474 17.936511c18.874883 3.169179 35.966143-0.938372 51.086515-12.278651 15.166421-11.362792 24.275893-26.505677 27.468608-45.405119L957.666734 96.919632 957.666734 96.919632zM529.814226 768.655683c18.922978 0 35.027771-6.597255 48.269353-19.885909 13.241582-13.218046 19.862373-29.300326 19.862373-48.245817l0-631.989815c0-18.946514-6.620791-35.027771-19.862373-48.244794-13.240559-13.288654-29.346375-19.885909-48.269353-19.885909l-98.416474 0c-18.875906 0-34.981722 6.596232-48.223305 19.885909-13.240559 13.217023-19.86135 29.299303-19.86135 48.244794L363.313098 700.523957c0 18.946514 5.071506 35.028794 15.119349 48.245817 10.141988 13.241582 24.885783 19.885909 44.512796 19.885909L529.814226 768.655683 529.814226 768.655683 529.814226 768.655683zM529.814226 291.805228c6.291287 0 11.692297 2.981914 16.104793 8.991792 4.367471 5.987365 6.621814 13.07683 6.621814 21.295002 0 8.827039-2.254344 16.057721-6.621814 21.763676-4.41352 5.65786-9.813506 8.499581-16.104793 8.499581l-98.416474 0c-6.291287 0-11.645225-2.840698-16.058744-8.499581-4.41352-5.704932-6.620791-12.936637-6.620791-21.763676 0-8.217149 2.207271-15.307637 6.620791-21.295002 4.41352-6.009877 9.767458-8.991792 16.058744-8.991792L529.814226 291.805228 529.814226 291.805228 529.814226 291.805228zM529.814226 411.962865c6.291287 0 11.692297 3.00545 16.104793 8.991792 4.367471 5.987365 6.621814 13.406335 6.621814 22.25691 0 8.804527-2.254344 16.057721-6.621814 21.74014-4.41352 5.65786-9.813506 8.498558-16.104793 8.498558l-98.416474 0c-6.291287 0-11.645225-2.839675-16.058744-8.498558-4.41352-5.682419-6.620791-12.936637-6.620791-21.74014 0-8.850575 2.207271-16.269545 6.620791-22.25691 4.41352-5.987365 9.767458-8.991792 16.058744-8.991792L529.814226 411.962865 529.814226 411.962865zM232.73104 768.655683c18.922978 0 35.168987-6.597255 48.739051-19.885909 13.570063-13.218046 20.332071-29.300326 20.332071-48.245817l0-631.989815c0-18.946514-6.760984-35.027771-20.332071-48.244794-13.570063-13.288654-29.816073-19.885909-48.739051-19.885909l-98.417497 0c-18.922978 0-35.122939 6.596232-48.691979 19.885909-13.570063 13.217023-20.331048 29.299303-20.331048 48.244794L65.290517 700.523957c0 18.946514 6.760984 35.028794 20.331048 48.245817 13.570063 13.241582 29.769001 19.885909 48.691979 19.885909L232.73104 768.655683 232.73104 768.655683 232.73104 768.655683zM138.117173 532.120502c-6.949272 0-12.583596-2.839675-16.997116-8.522094-4.41352-5.65786-6.667863-12.936637-6.667863-21.763676 0-8.170077 2.25332-15.284101 6.667863-21.270443 4.41352-5.987365 10.047844-9.016351 16.997116-9.016351l90.811262 0c6.949272 0 12.490475 3.028986 16.622586 9.016351 4.037966 5.987365 6.104021 13.100366 6.104021 21.270443 0 8.827039-2.066055 16.104793-6.104021 21.763676-4.13211 5.682419-9.673313 8.522094-16.622586 8.522094L138.117173 532.120502 138.117173 532.120502zM232.73104 235.037317c6.949272 0 12.443403 2.840698 16.57449 8.499581 4.085038 5.681396 6.104021 12.654204 6.104021 20.824281 0 8.828063-2.018983 15.918551-6.104021 21.295002-4.13211 5.376451-9.625218 8.052396-16.57449 8.052396l-94.613868 0c-6.949272 0-12.583596-2.675946-16.997116-8.052396-4.41352-5.376451-6.667863-12.466939-6.667863-21.295002 0-8.169053 2.25332-15.142885 6.667863-20.824281 4.41352-5.65786 10.047844-8.499581 16.997116-8.499581L232.73104 235.037317 232.73104 235.037317zM232.73104 351.391325c6.949272 0 12.443403 2.865257 16.57449 8.546653 4.085038 5.65786 6.104021 12.936637 6.104021 21.74014 0 8.827039-2.018983 16.104793-6.104021 21.763676-4.13211 5.682419-9.625218 8.522094-16.57449 8.522094l-94.613868 0c-6.949272 0-12.583596-2.839675-16.997116-8.522094-4.41352-5.65786-6.667863-12.936637-6.667863-21.763676 0-8.804527 2.25332-16.08228 6.667863-21.74014 4.41352-5.681396 10.047844-8.546653 16.997116-8.546653L232.73104 351.391325 232.73104 351.391325zM232.73104 351.391325"  horiz-adv-x="1024" />

    
    <glyph glyph-name="ai-user" unicode="&#58892;" d="M983.605 76.362c3.383-10.148 5.97-23.282 7.562-39.201 1.592-15.919 2.388-3.184 2.388-19.103 0-15.919-1.194-31.042-3.383-45.37-2.388-14.327-5.97-25.073-10.546-32.435-3.383-4.776-13.133-9.75-29.052-15.322-15.919-5.572-182.075-52.931-415.689-52.931-213.516 0-397.382 34.624-426.634 41.191-29.251 6.567-46.763 12.138-52.931 16.715-7.562 5.572-13.133 22.088-16.715 49.747-3.582 27.859-2.189 34.823 4.577 78.203 4.179 25.073 14.327 44.176 30.445 56.911 16.317 12.934 35.619 23.083 57.508 30.445 22.088 7.562 124.368 42.783 147.849 48.951 23.481 6.169 43.977 14.924 61.488 26.466 14.327 8.756 25.272 17.312 33.032 25.471 7.761 8.159 13.332 16.317 16.317 24.476 2.985 8.159 4.577 16.516 4.577 25.471 0 8.756-0.398 18.307-0.995 28.654-1.393 16.317-6.567 28.853-15.72 37.609-9.154 8.756-19.302 17.909-31.042 27.461-5.572 4.776-10.148 11.342-14.327 19.899-4.179 8.557-7.761 17.113-11.143 25.869-3.383 10.148-6.766 20.695-10.148 31.44-4.776 1.393-9.551 3.582-14.327 7.164-4.179 3.383-8.557 8.159-13.332 14.327-4.776 6.169-8.756 14.924-12.337 26.466-3.383 11.342-4.577 21.889-3.383 31.042 0.995 9.154 2.786 17.113 5.572 23.879 2.587 7.562 6.766 14.526 12.337 21.491-0.597 25.67 0.597 51.538 4.179 77.407 2.587 21.69 7.562 44.773 14.725 69.248s17.511 46.564 31.042 66.065c12.934 18.307 27.262 33.43 43.181 45.37 15.919 11.939 32.037 21.292 48.354 28.058 16.317 6.766 32.634 11.342 49.349 14.327 16.516 2.587 32.634 4.179 48.354 4.179 19.501 0 38.604-2.388 56.513-7.164 17.909-4.776 34.624-10.745 50.344-18.307 15.521-7.562 29.649-15.72 41.589-24.874 12.337-9.154 22.088-18.506 29.649-28.058 16.914-21.69 29.649-45.569 38.206-71.636 8.557-26.068 14.526-50.543 17.71-73.626 4.179-27.063 5.771-54.324 5.174-81.387 4.776-2.587 8.557-6.766 11.143-12.337 2.587-4.776 4.975-10.745 6.567-18.307 1.592-7.562 1.791-16.516 0.398-27.461-1.99-14.327-5.373-25.471-9.551-34.027-4.577-8.557-9.353-15.123-14.725-19.899-6.169-5.572-12.536-9.154-19.302-11.143-2.587-10.745-5.771-21.491-9.154-31.44-3.383-8.756-7.363-17.511-11.541-25.869-4.577-8.557-9.353-15.123-14.725-19.899-6.169-5.572-11.74-9.949-17.312-13.73-5.572-3.582-10.148-7.562-14.327-11.541-4.179-4.179-7.562-8.955-10.148-14.725-2.587-5.771-4.776-12.735-6.169-20.894-1.99-10.148-2.587-20.496-1.99-31.042 0.597-10.347 3.383-21.093 8.159-31.44 4.776-10.347 12.536-20.496 23.481-30.047 10.745-9.551 25.471-17.909 43.778-25.471 16.914-6.766 35.619-12.735 55.518-17.71 20.098-5.174 100.689-39.798 119.195-46.962 18.506-7.164 35.221-16.118 49.747-26.864 14.128-11.939 24.476-26.068 30.644-43.778v0zM531.501-61.935c3.383 0 8.557 2.189 15.72 6.567 7.164 4.577 14.128 9.551 20.894 15.72 6.766 6.169 12.735 12.337 17.71 18.307 5.174 6.169 7.562 10.745 7.562 14.327 0 4.179-0.995 11.143-2.985 21.491-1.99 10.148-4.577 21.491-7.164 33.43-2.587 12.337-5.572 24.277-8.159 36.216-2.587 11.939-5.174 21.491-7.164 29.052 6.766 5.572 12.536 11.342 17.312 17.71 4.776 6.567 7.164 13.133 7.164 19.899 0 5.572-1.791 10.944-5.572 16.715-3.582 5.771-7.96 10.546-12.735 14.725-5.572 4.776-11.143 9.551-17.312 14.327h-50.742c-6.766-4.776-12.536-9.551-17.312-14.327-4.179-4.179-7.761-8.756-11.143-14.327-3.383-5.572-5.174-10.745-5.174-16.317 0-4.179 2.388-9.551 7.562-16.317 5.174-6.766 11.342-13.332 18.705-19.302-1.99-6.169-4.776-14.924-8.159-26.466-3.383-11.342-6.567-23.481-9.551-36.216-2.985-12.536-5.771-24.476-8.159-35.619-2.388-11.143-3.383-19.302-3.383-24.874 0-3.383 2.388-8.159 7.562-14.327 5.174-6.169 11.143-12.337 18.307-18.307 7.164-6.169 14.128-11.342 20.894-15.72 6.965-3.98 12.138-6.368 15.322-6.368v0z"  horiz-adv-x="1024" />

    
    <glyph glyph-name="iconfontpaixingbang" unicode="&#58937;" d="M992.256-64 960-64 960 319.808C960 355.968 931.072 384 895.424 384l-126.784 0C732.352 384 704 355.264 704 319.808L704-64l-64 0L640 831.552C640 867.264 611.072 896 575.424 896L448.576 896C412.352 896 384 867.136 384 831.552L384-64 320-64 320 576.256C320 611.52 291.072 640 255.424 640L128.576 640C92.352 640 64 611.456 64 576.256L64-64 31.744-64C14.464-64 0-78.336 0-96 0-113.152 14.208-128 31.744-128l960.448 0C1009.536-128 1024-113.664 1024-96 1024-78.848 1009.792-64 992.256-64z"  horiz-adv-x="1024" />

    
    <glyph glyph-name="xie" unicode="&#58941;" d="M877.3 741.3C836.9 781.7 783 804 725.5 804c-57.5 0-111.4-22.3-151.8-62.7l-48.1-48.1-251.4-251.3 303.6-303.6 299.4 299.4c40.4 40.4 62.7 94.3 62.7 151.8 0 57.4-22.2 111.4-62.6 151.8zM221.5 389.1L177 344.7c-16.8-16.8-27.9-37.9-32.4-61.2l-53.9-285c-2.3-12.1 1.6-24.6 10.3-33.3 7.1-7.1 16.6-10.9 26.4-10.9 2.3 0 4.6 0.2 6.9 0.6l285 53.9c23.3 4.4 44.5 15.6 61.2 32.4l44.4 44.4-303.4 303.5z"  horiz-adv-x="1024" />

    
    <glyph glyph-name="dashujukeshihuaico-" unicode="&#59391;" d="M611.413333 379.30666699999995a231.253333 231.253333 0 1 1-199.253333 0 441.173333 441.173333 0 0 1-341.333333-429.653334h882.773333a441.173333 441.173333 0 0 1-342.186667 429.653334zM611.413333 379.30666699999995a231.253333 231.253333 0 1 1-199.253333 0 441.173333 441.173333 0 0 1-341.333333-429.653334h882.773333a441.173333 441.173333 0 0 1-342.186667 429.653334zM611.413333 379.30666699999995a231.253333 231.253333 0 1 1-199.253333 0 441.173333 441.173333 0 0 1-341.333333-429.653334h882.773333a441.173333 441.173333 0 0 1-342.186667 429.653334zM953.6-50.346667000000025a441.173333 441.173333 0 0 1-341.333333 429.653334 229.546667 229.546667 0 0 1 11.093333 409.173333 228.693333 228.693333 0 0 1-32 3.413333 230.4 230.4 0 0 1-99.413333-438.613333 440.32 440.32 0 0 1-341.333334-403.2zM653.653333 561.066667a230.4 230.4 0 0 0-131.413333-207.786667 441.173333 441.173333 0 0 0 341.333333-403.2h90.453334a441.173333 441.173333 0 0 1-341.333334 429.653333 229.546667 229.546667 0 0 1 11.093334 409.173334 228.266667 228.266667 0 0 1-32 3.413333 229.973333 229.973333 0 0 1-85.333334-15.786667 230.826667 230.826667 0 0 0 147.2-215.466666zM104.96 689.92A135.68 135.68 0 0 1 31.146667 764.16a9.813333 9.813333 0 0 0 0 18.346667A135.68 135.68 0 0 1 104.96 856.746667a9.813333 9.813333 0 0 0 18.346667 0 135.68 135.68 0 0 1 74.24-74.24 9.813333 9.813333 0 0 0 0-18.346667 135.68 135.68 0 0 1-74.24-74.24 9.813333 9.813333 0 0 0-18.346667 0zM905.813333 480a69.546667 69.546667 0 0 1-37.973333 37.973333 5.12 5.12 0 0 0 0 9.386667 69.546667 69.546667 0 0 1 37.973333 37.973333 5.12 5.12 0 0 0 9.386667 0 69.546667 69.546667 0 0 1 37.973333-37.973333 5.12 5.12 0 0 0 0-9.386667 69.546667 69.546667 0 0 1-37.973333-37.973333 5.12 5.12 0 0 0-9.386667 0zM42.666667 224a69.546667 69.546667 0 0 1-37.973334 37.973333 5.12 5.12 0 0 0 0 9.386667 69.546667 69.546667 0 0 1 37.973334 38.4 5.12 5.12 0 0 0 9.386666 0 69.546667 69.546667 0 0 1 37.973334-37.973333 5.12 5.12 0 0 0 0-9.386667 69.546667 69.546667 0 0 1-37.973334-37.973333 5.12 5.12 0 0 0-9.386666-0.426667z"  horiz-adv-x="1024" />

    
    <glyph glyph-name="huishouzhan" unicode="&#59378;" d="M238.08 49.152c0-54.272 48.64-98.816 108.032-98.816h331.776c59.904 0 108.032 44.032 108.032 98.816l50.688 516.096H186.88l51.2-516.096z m463.36 672.256h-71.68v70.656c0 13.824-11.264 25.088-25.088 25.088H419.328c-13.824 0-25.088-11.264-25.088-25.088v-70.656H133.12v-98.816h757.76v98.816H701.44zM465.92 755.2h92.16v-33.28h-92.16V755.2z"  horiz-adv-x="1024" />

    
    <glyph glyph-name="huishouzhanlajixiang" unicode="&#58943;" d="M903.3 717.4H623.5c0 1 0.3 1.8 0.3 2.8C623.8 781.9 573.7 832 512 832s-111.8-50.1-111.8-111.8v-2.8H120.7c-30.9 0-55.9-25-55.9-55.9s25-55.9 55.9-55.9h782.6c30.9 0 55.9 25 55.9 55.9s-25 55.9-55.9 55.9zM772.4 562.1H251.6c-84.5 0-146.9-75.8-127.4-154.7l94.2-380.8c13-52.4 77.7-90.6 153.3-90.6h280.5c75.7 0 140.4 38.2 153.3 90.6l94.2 380.8c19.6 78.9-42.8 154.7-127.3 154.7zM414.6 89.4c-2.8-0.6-5.7-0.9-8.5-0.9-19.5 0-36.9 13.6-41 33.5l-51.9 251.6c-4.7 22.7 9.9 44.8 32.6 49.5 22.4 4.9 44.8-9.9 49.5-32.6l51.9-251.6c4.7-22.7-9.9-44.9-32.6-49.5z m296.2 284.1L658.9 122c-4.1-19.8-21.5-33.5-41-33.5-2.8 0-5.7 0.3-8.5 0.9-22.7 4.7-37.3 26.9-32.6 49.5l51.9 251.6c4.7 22.7 26.9 37.4 49.5 32.6 22.7-4.7 37.3-26.9 32.6-49.6z"  horiz-adv-x="1024" />

    
    <glyph glyph-name="shuju" unicode="&#58996;" d="M665.6 446.1056a51.2 51.2 0 0 0 51.2-51.2v-460.8a51.2 51.2 0 0 0-51.2-51.2h-51.2a51.2 51.2 0 0 0-51.2 51.2v460.8a51.2 51.2 0 0 0 51.2 51.2h51.2z m-256-204.8a51.2 51.2 0 0 0 51.2-51.2v-256a51.2 51.2 0 0 0-51.2-51.2H358.4a51.2 51.2 0 0 0-51.2 51.2v256a51.2 51.2 0 0 0 51.2 51.2h51.2z m-256 102.4a51.2 51.2 0 0 0 51.2-51.2v-358.4a51.2 51.2 0 0 0-51.2-51.2H102.4a51.2 51.2 0 0 0-51.2 51.2v358.4a51.2 51.2 0 0 0 51.2 51.2h51.2z m768 256a51.2 51.2 0 0 0 51.2-51.2v-614.4a51.2 51.2 0 0 0-51.2-51.2h-51.2a51.2 51.2 0 0 0-51.2 51.2v614.4a51.2 51.2 0 0 0 51.2 51.2h51.2zM998.4 896l-102.4-237.056L836.352 732.16l-265.5232-215.1936-260.096 28.0064L60.6208 445.952a25.6 25.6 0 0 0-31.1296 10.24l-2.048 4.1472a25.6 25.6 0 0 0 10.24 31.1296l4.096 2.0992 261.888 103.6288 251.904-27.136 248.4736 201.6256L736.768 854.1184 998.4 896z"  horiz-adv-x="1024" />

    
    <glyph glyph-name="huojian" unicode="&#58940;" d="M684.4 479.1s23.5-11.8 32-32.6v-128.2c8.7-20.9 102.9-43.3 113-63.6v-128.2H641s-69-32.3-132.1-32.3h3.7c-63.1 0-132.1 32.3-132.1 32.3H192V254.7c10 20.3 106.7 42.7 115.4 63.6V446.5c8.6 20.8 28.3 28.8 28.3 28.8M512.6 84.2h-3.7c-0.4 0-0.7 0-1.1 0.1-57.7 1.4-117.5 26.9-129.5 32.2H192c-5.5 0-10 4.5-10 10V254.7c0 1.5 0.4 3 1 4.4 6.3 12.8 27.7 21.9 62.1 35.9 13 5.3 26.4 10.7 36.7 15.9 10.3 5.2 14.2 8.6 15.6 10.2V446.5c0 1.3 0.3 2.6 0.8 3.8 10.1 24.4 32.8 33.9 33.8 34.2 5.1 2.1 10.9-0.4 13-5.5 2.1-5.1-0.4-10.9-5.5-13-0.1 0-14.9-6.4-22.1-21.6v-126.1c0-1.3-0.3-2.6-0.8-3.8-5.7-13.8-28.1-23.4-64-38-12.6-5.1-25.6-10.4-35.6-15.4-9.5-4.8-13.4-7.9-15-9.5v-115.1h178.5c1.5 0 2.9-0.3 4.2-0.9 0.7-0.3 66.4-30.7 126-31.3 59.6 0.6 125.3 31 126 31.3 1.3 0.6 2.8 0.9 4.2 0.9h178.4V251.6c-1.6 1.6-5.5 4.8-14.7 9.5-9.8 5-22.5 10.3-34.8 15.4-35.2 14.6-57 24.2-62.7 38-0.5 1.2-0.8 2.5-0.8 3.8V444.4c-7.5 15.9-26.3 25.7-26.5 25.8-4.9 2.5-6.9 8.5-4.4 13.4s8.5 6.9 13.4 4.4c1.1-0.6 27-13.8 36.8-37.8 0.5-1.2 0.7-2.5 0.7-3.8V321c1.4-1.6 5.2-4.9 15.2-10.1 10.1-5.2 23.3-10.7 36-16 33.6-13.9 54.5-23.1 60.8-35.8 0.7-1.4 1-2.9 1-4.5v-128.2c0-5.5-4.5-10-10-10H643.2c-12-5.4-71.8-30.9-129.5-32.2h-1.1zM651 442.1s19-9.3 25.9-25.8v-101.5c7.1-16.5 83.1-34.3 91.3-50.4v-101.5H616s-55.8-25.6-106.8-25.6h3c-51 0-106.8 25.6-106.8 25.6H253.3V264.4c8.1 16.1 86.2 33.8 93.2 50.4V416.3c6.9 16.5 22.8 22.8 22.8 22.8M384.5 249.3V605.8c0 45.5 81.9 180 127.4 180s127.4-134.5 127.4-180v-356.5H384.5M639.3 239.3H384.5c-5.5 0-10 4.5-10 10V605.8c0 27.6 24.3 76.5 48.3 112.6 19.2 28.9 56.4 77.4 89.1 77.4 32.7 0 69.9-48.5 89.1-77.4 24-36.1 48.3-85 48.3-112.6v-356.5c0-5.5-4.5-10-10-10z m-244.8 20h234.8V605.8c0 19.7-18.9 62.4-45 101.5-27.3 41-56.4 68.5-72.4 68.5s-45.2-27.5-72.4-68.5c-26.1-39.1-45-81.8-45-101.5v-346.5zM635.6 605.8c0 45.5-81.9 180-127.4 180s-123.4-134.5-123.4-180h250.8zM635.6 595.8H384.8c-5.5 0-10 4.5-10 10 0 27.8 23.2 76.5 46.2 112.5 13.8 21.5 28.2 39.8 41.7 53 16.8 16.3 32.1 24.6 45.4 24.6 13.4 0 28.8-8.2 46-24.5 13.9-13.2 28.8-31.5 43.1-52.9 24-36.1 48.3-85 48.3-112.6 0.1-5.6-4.4-10.1-9.9-10.1z m-239.7 20h228.5c-4.5 22.1-21.5 58.1-43.8 91.5-27.3 41-56.4 68.5-72.4 68.5-16.2 0-43.8-26.8-70.3-68.3-21.4-33.4-37.7-69.5-42-91.7zM417.9 573.3h188V283h-188zM511.9 127.3c-5.5 0-10 4.5-10 10V368.8c0 5.5 4.5 10 10 10s10-4.5 10-10v-231.5c0-5.5-4.5-10-10-10zM192 50.4c-5.5 0-10 4.5-10 10v39.1c0 5.5 4.5 10 10 10s10-4.5 10-10v-39.1c0-5.5-4.5-10-10-10zM256 0.4c-5.5 0-10 4.5-10 10v89.1c0 5.5 4.5 10 10 10s10-4.5 10-10v-89.1c0-5.5-4.5-10-10-10zM320.1 30.4c-5.5 0-10 4.5-10 10v59.1c0 5.5 4.5 10 10 10s10-4.5 10-10v-59.1c0-5.5-4.5-10-10-10zM704.1 50.4c-5.5 0-10 4.5-10 10v39.1c0 5.5 4.5 10 10 10s10-4.5 10-10v-39.1c0-5.5-4.5-10-10-10zM768.1 0.4c-5.5 0-10 4.5-10 10v89.1c0 5.5 4.5 10 10 10s10-4.5 10-10v-89.1c0-5.5-4.5-10-10-10zM832.2 30.4c-5.5 0-10 4.5-10 10v59.1c0 5.5 4.5 10 10 10s10-4.5 10-10v-59.1c0-5.5-4.5-10-10-10zM421 523.5c-5.5 0-10 4.5-10 10v38.3c0 5.5 4.5 10 10 10h38.4c5.5 0 10-4.5 10-10s-4.5-10-10-10H431v-28.3c0-5.5-4.5-10-10-10zM421.4 503.5m-9.8 0a9.8 9.8 0 1 1 19.6 0 9.8 9.8 0 1 1-19.6 0ZM511.9 423.9m-55.2 0a55.2 55.2 0 1 1 110.4 0 55.2 55.2 0 1 1-110.4 0ZM511.9 358.7c-36 0-65.2 29.2-65.2 65.2s29.2 65.2 65.2 65.2 65.2-29.2 65.2-65.2-29.2-65.2-65.2-65.2z m0 110.4c-24.9 0-45.2-20.3-45.2-45.2s20.3-45.2 45.2-45.2 45.2 20.3 45.2 45.2-20.3 45.2-45.2 45.2zM511.9 423.9m-27.9 0a27.9 27.9 0 1 1 55.8 0 27.9 27.9 0 1 1-55.8 0ZM330.1 153.4h-66.8c-5.5 0-10 4.5-10 10s4.5 10 10 10h66.8c5.5 0 10-4.5 10-10s-4.5-10-10-10z"  horiz-adv-x="1024" />

    
    <glyph glyph-name="nian" unicode="&#58938;" d="M649.326703 896v-163.341838h102.178594V896zM285.280865 896v-163.341838H387.459459V896zM930.926703 27.84173c0-14.391351-12.564757-51.532108-50.923244-51.670487H137.603459c-35.175784 3.321081-50.923243 37.279135-50.923243 51.670487V629.344865h844.218811v-601.503135zM877.983135 814.218378H802.594595v-132.649513h-204.35719V814.218378h-159.688648v-132.649513H234.219243V814.218378H139.651459A125.924324 125.924324 0 0 1 13.837838 688.404757v-666.596325a125.924324 125.924324 0 0 1 125.813621-125.813621h738.331676a125.924324 125.924324 0 0 1 125.813622 125.813621V688.404757A125.924324 125.924324 0 0 1 877.983135 814.218378zM434.286703 426.786595a240.44627 240.44627 0 0 0-61.218595-68.192865L345.945946 393.077622c38.358486 28.672 64.31827 67.030486 77.491892 115.462919l41.845621-7.74919c-3.487135-12.398703-7.36173-24.022486-11.623783-34.871351h233.638054v-39.133405h-117.787676v-49.982271h104.226595v-37.971027h-104.226595v-71.68h129.41146v-39.520865h-129.41146v-82.528864h-40.683243V227.632432h-174.356757v39.520865h59.668757V376.804324h114.688v49.982271h-94.540108z m20.535351-159.633298h74.004757v71.68h-74.004757v-71.68z"  horiz-adv-x="1024" />

    
    <glyph glyph-name="yue" unicode="&#58939;" d="M649.326703 896v-163.341838h102.178594V896zM285.280865 896v-163.341838H387.459459V896zM930.926703 29.308541c0-14.391351-12.592432-51.559784-50.950919-51.698163H137.603459c-35.148108 3.321081-50.923243 37.279135-50.923243 51.698163V630.811676h844.246487v-601.503135zM877.955459 815.685189H802.594595V683.008h-204.384865V815.685189h-159.660973V683.008H234.191568V815.685189H139.623784A125.924324 125.924324 0 0 1 13.837838 689.871568v-666.596325a125.924324 125.924324 0 0 1 125.785946-125.813621h738.331675a125.924324 125.924324 0 0 1 125.813622 125.813621V689.871568A125.924324 125.924324 0 0 1 877.955459 815.685189zM451.113514 350.291027v-57.344h153.046486v57.344H451.113514z m153.046486 37.583568V442.118919H451.113514v-54.244324h153.046486z m-155.371243-132.511136c-5.424432-48.819892-20.147892-89.890595-44.170379-122.824648L373.621622 160.823351c24.022486 33.708973 36.03373 77.104432 36.808648 129.798919V480.864865h234.800433v-303.768216c0-25.572324-13.173622-38.358486-39.520865-38.358487h-49.594811l-10.848865 39.520865c17.048216-1.162378 32.934054-1.937297 47.270054-1.937297 7.749189 0 11.623784 5.424432 11.623784 15.498378v63.543351h-155.371243z"  horiz-adv-x="1024" />

    
    <glyph glyph-name="ri" unicode="&#58918;" d="M655.8 894.8V728H760.1V894.8H655.8z m-371.9 0V728h104.4V894.8H283.9z m0 0M948.9 8c0-14.7-13-52.6-52.7-52.8H128c-36.4 3.4-52.7 38.1-52.7 52.8V622.4h873.5l0.1-614.4zM894.1 811.3h-78v-135.5H604.7V811.3H439.4v-135.5H228V811.3H130.1C58.3 811.2 0 753.7 0 682.7v-680.9c0.1-71 58.3-128.5 130.2-128.5h764c71.9 0.1 130.1 57.6 130.2 128.5V682.7c-0.2 71-58.4 128.5-130.3 128.6z m0 0M362 122.5V472H662.1v-349.5H362z m241.7 295.6H420.5v-79.8h183.1v79.8z m-183.2-241h183.1V285.9H420.5v-108.8z"  horiz-adv-x="1024" />

    
    <glyph glyph-name="weixin" unicode="&#58895;" d="M516.654545 863.418182c267.170909 0 484.072727-216.901818 484.072728-484.072727s-216.901818-484.072727-484.072728-484.072728-484.072727 216.901818-484.072727 484.072728 216.901818 484.072727 484.072727 484.072727zM362.123636 663.272727c-202.938182-37.236364-270.894545-269.963636-108.916363-376.087272 9.309091-5.585455 9.309091-5.585455-4.654546-45.614546l-11.170909-34.443636 40.96 22.341818 40.96 22.341818 21.410909-5.585454c22.341818-5.585455 52.130909-10.24 71.68-10.24h11.170909l-3.723636 15.825454c-31.650909 119.156364 78.196364 237.381818 221.556364 237.381818h19.549091l-3.723637 13.963637c-31.650909 111.709091-164.770909 184.32-295.098182 160.116363z m-17.687272-104.261818c21.410909-14.894545 22.341818-46.545455 1.861818-60.509091-33.512727-22.341818-72.610909 16.756364-50.269091 50.269091 10.24 14.894545 34.443636 20.48 48.407273 10.24z m173.149091 0c35.374545-24.203636 9.309091-80.058182-30.72-64.232727-28.858182 11.170909-31.650909 51.2-5.585455 65.163636 11.170909 5.585455 26.996364 5.585455 36.305455-0.930909z m78.196363-88.436364c-100.538182-18.618182-170.356364-95.883636-166.632727-185.250909 5.585455-119.156364 143.36-201.076364 275.549091-164.770909l15.825454 4.654546 32.581819-17.687273c18.618182-10.24 33.512727-17.687273 33.512727-16.756364s-2.792727 13.963636-7.447273 28.858182c-10.24 32.581818-11.170909 30.72 3.723636 40.96 159.185455 115.432727 19.549091 348.16-187.112727 309.992727z m-3.723636-95.883636c9.309091-5.585455 13.963636-21.410909 9.309091-31.650909-8.378182-23.272727-42.821818-25.134545-52.130909-2.792727-9.309091 26.065455 19.549091 50.269091 42.821818 34.443636z m140.567273-2.792727c13.963636-13.032727 11.170909-36.305455-4.654546-44.683637-25.134545-13.032727-51.2 13.032727-38.167273 37.236364 8.378182 15.825455 30.72 19.549091 42.821819 7.447273z"  horiz-adv-x="1024" />

    
    <glyph glyph-name="xinfeng" unicode="&#58888;" d="M511.600312 384.399688m-511.600312 0a511.600312 511.600312 0 1 1 1023.200625 0 511.600312 511.600312 0 1 1-1023.200625 0ZM740.221702 683.36612L278.18267 238.913349l-79.937549-92.727557 268.590164-271.787666c14.388759-1.598751 29.576893-2.398126 44.765027-2.398126 282.179547 0 511.600312 229.420765 511.600313 511.600312v13.589384L740.221702 683.36612zM750.613583 600.231069c52.758782-38.370023 92.727557-71.144418 92.727557-82.335675v-324.546448c0-31.175644-25.580016-56.75566-56.75566-56.75566H236.615144c-31.175644 0-56.75566 25.580016-56.755659 56.75566V517.895394c0 11.191257 43.166276 45.564403 98.323185 85.533177l235.016393 157.476972L750.613583 600.231069zM745.017955 444.352849V678.569867H278.18267v-231.019516l73.542545-75.940671h324.546448zM366.913349 598.632319h290.173302v-28.777518H366.913349zM366.913349 500.309133h290.173302v-28.777517H366.913349zM834.548009 525.889149c-3.197502 2.398126-7.194379 2.398126-10.391881 0L676.271663 372.409055H354.922717c-1.598751 0-2.398126 0-3.197502-0.799375L202.241998 525.889149c-2.398126 3.197502-7.194379 3.197502-10.391881 0-3.197502-2.398126-3.197502-7.194379 0-10.391881l146.285714-151.881343-132.696331-213.433255c-2.398126-3.197502-0.799375-7.993755 2.398127-9.592506 0.799375-0.799375 2.398126-0.799375 3.996877-0.799376 2.398126 0 4.796253 1.598751 6.395004 3.197502l134.295082 215.831382c0.799375 0 1.598751-0.799375 3.197502-0.799375h319.750195l134.295082-215.032007c1.598751-2.398126 3.996877-3.197502 6.395004-3.197502 1.598751 0 2.398126 0 3.996878 0.799376 3.197502 2.398126 3.996877 6.395004 2.398126 9.592506L688.262295 364.415301l146.285714 151.881342c3.197502 2.398126 3.197502 7.194379 0 9.592506z"  horiz-adv-x="1024" />

    
    <glyph glyph-name="GitHub" unicode="&#58886;" d="M524.979332 896C234.676191 896 0 661.323809 0 371.020668c0-232.068678 150.366597-428.501342 358.967656-498.035028 26.075132-5.215026 35.636014 11.299224 35.636014 25.205961 0 12.168395-0.869171 53.888607-0.869171 97.347161-146.020741-31.290159-176.441729 62.580318-176.441729 62.580318-23.467619 60.841976-58.234462 76.487055-58.234463 76.487055-47.804409 32.15933 3.476684 32.15933 3.476685 32.15933 53.019436-3.476684 80.83291-53.888607 80.83291-53.888607 46.935238-79.963739 122.553122-57.365291 152.97411-43.458554 4.345855 33.897672 18.252593 57.365291 33.028501 70.402857-116.468925 12.168395-239.022047 57.365291-239.022047 259.012982 0 57.365291 20.860106 104.300529 53.888607 140.805715-5.215026 13.037566-23.467619 66.926173 5.215027 139.067372 0 0 44.327725 13.906737 144.282399-53.888607 41.720212 11.299224 86.917108 17.383422 131.244833 17.383422s89.524621-6.084198 131.244833-17.383422C756.178839 692.613968 800.506564 678.70723 800.506564 678.70723c28.682646-72.1412 10.430053-126.029806 5.215026-139.067372 33.897672-36.505185 53.888607-83.440424 53.888607-140.805715 0-201.64769-122.553122-245.975415-239.891218-259.012982 19.121764-16.514251 35.636014-47.804409 35.636015-97.347161 0-70.402857-0.869171-126.898978-0.869172-144.282399 0-13.906737 9.560882-30.420988 35.636015-25.205961 208.601059 69.533686 358.967656 265.96635 358.967655 498.035028C1049.958663 661.323809 814.413301 896 524.979332 896zM199.040177 142.428674c-0.869171-2.607513-5.215026-3.476684-8.691711-1.738342s-6.084198 5.215026-4.345855 7.82254c0.869171 2.607513 5.215026 3.476684 8.691711 1.738342s5.215026-5.215026 4.345855-7.82254z m-6.953369 4.345856M219.900283 118.96105499999999c-2.607513-2.607513-7.82254-0.869171-10.430053 2.607514-3.476684 3.476684-4.345855 8.691711-1.738342 11.299224 2.607513 2.607513 6.953369 0.869171 10.430053-2.607514 3.476684-4.345855 4.345855-9.560882 1.738342-11.299224z m-5.215026 5.215027M240.760389 88.54006800000002c-3.476684-2.607513-8.691711 0-11.299224 4.345855-3.476684 4.345855-3.476684 10.430053 0 12.168395 3.476684 2.607513 8.691711 0 11.299224-4.345855 3.476684-4.345855 3.476684-9.560882 0-12.168395z m0 0M269.443034 58.98825099999999c-2.607513-3.476684-8.691711-2.607513-13.906737 1.738342-4.345855 4.345855-6.084198 10.430053-2.607513 13.037566 2.607513 3.476684 8.691711 2.607513 13.906737-1.738342 4.345855-3.476684 5.215026-9.560882 2.607513-13.037566z m0 0M308.555733 42.474000000000046c-0.869171-4.345855-6.953369-6.084198-13.037566-4.345855-6.084198 1.738342-9.560882 6.953369-8.691711 10.430053 0.869171 4.345855 6.953369 6.084198 13.037566 4.345855 6.084198-1.738342 9.560882-6.084198 8.691711-10.430053z m0 0M351.145116 38.997315999999955c0-4.345855-5.215026-7.82254-11.299224-7.82254-6.084198 0-11.299224 3.476684-11.299224 7.82254s5.215026 7.82254 11.299224 7.82254c6.084198 0 11.299224-3.476684 11.299224-7.82254z m0 0M391.126986 45.95068500000002c0.869171-4.345855-3.476684-8.691711-9.560882-9.560882-6.084198-0.869171-11.299224 1.738342-12.168395 6.084197-0.869171 4.345855 3.476684 8.691711 9.560881 9.560882 6.084198 0.869171 11.299224-1.738342 12.168396-6.084197z m0 0"  horiz-adv-x="1049" />

    
    <glyph glyph-name="qq" unicode="&#58924;" d="M512 384m-512 0a512 512 0 1 1 1024 0 512 512 0 1 1-1024 0ZM744.13037 294.864593c-10.752 64.677926-55.900919 107.055407-55.900918 107.055407 6.454993 58.721659-17.206044 69.141807-17.206045 69.141807C666.061748 652.73363 515.168711 649.547852 512 649.464415c-3.168711 0.082489-154.078815 3.268267-159.023407-178.420622 0 0-23.661037-10.420148-17.206993-69.141808 0 0-45.14797-42.377481-55.89997-107.055407 0 0-5.741037-109.278815 51.602963-13.389748 0 0 12.909037-36.421215 36.553007-69.141808 0 0-42.294044-14.866963-38.693926-53.527703 0 0-1.443081-43.107556 90.313956-40.154075 0 0 64.494933 5.193956 83.858963 33.450667h17.057185c19.346963-28.256711 83.858963-33.450667 83.858963-33.450667 91.723852-2.9696 90.296889 40.154074 90.296889 40.154075 3.567881 38.644622-38.693926 53.527704-38.693926 53.527703 23.644919 32.720593 36.553956 69.141807 36.553955 69.141808 57.27763-95.889067 51.552711 13.406815 51.552711 13.406814z"  horiz-adv-x="1024" />

    
    <glyph glyph-name="shuqian" unicode="&#61367;" d="M720.585188 725.333333h189.659248a113.755564 113.755564 0 0 0 113.755564-113.755564v-455.155538a113.755564 113.755564 0 0 0-113.755564-113.755564h-189.659248V725.333333z m0 0M796.488872 649.496291v-530.992582h113.755564a37.918521 37.918521 0 0 1 37.918521 37.918522v455.155538a37.918521 37.918521 0 0 1-37.918521 37.918522z m0 75.837042h113.755564a113.755564 113.755564 0 0 0 113.755564-113.755564v-455.155538a113.755564 113.755564 0 0 0-113.755564-113.755564h-113.755564a170.666667 170.666667 0 0 0-170.733308-170.666667H170.666667A170.666667 170.666667 0 0 0 0 42.666667V725.333333A170.733307 170.733307 0 0 0 170.666667 896H625.755564a170.733307 170.733307 0 0 0 170.733308-170.666667z m-75.903684-682.666666V725.333333A94.829624 94.829624 0 0 1 625.755564 820.162957H170.666667a94.829624 94.829624 0 0 1-94.829624-94.829624v-682.666666a94.829624 94.829624 0 0 1 94.829624-94.829624H625.755564a94.829624 94.829624 0 0 1 94.829624 94.829624zM208.585188 421.918521h265.496291a37.918521 37.918521 0 1 0 0-75.837042H208.585188a37.918521 37.918521 0 0 0 0 75.837042z m0 246.570351h379.251855a37.918521 37.918521 0 0 0 0-75.837043H208.585188a37.918521 37.918521 0 0 0 0 75.837043z m0 0"  horiz-adv-x="1024" />

    
    <glyph glyph-name="gosearch" unicode="&#58986;" d="M761.275307 684.032c-155.093333 155.093333-407.466667 153.898667-562.176-3.328-152.021333-154.453333-151.637333-404.181333 0.853333-557.141333 124.629333-125.098667 312.448-148.906667 461.738667-71.68a41.898667 41.898667 0 0 0 48.938666-7.424l75.221334-75.136a45.312 45.312 0 0 1 64.085333 0.085333l65.066667 65.066667a45.269333 45.269333 0 0 1 0.128 64.128l-75.178667 75.178666a41.984 41.984 0 0 0-7.466667 48.981334c77.141333 149.034667 53.504 336.64-71.168 461.226666M915.131307 98.645333l-24.704 24.661334a446.122667 446.122667 0 0 0-127.317334-131.328l22.741334-22.698667a45.312 45.312 0 0 1 64.085333 0.170667l65.066667 65.024a45.354667 45.354667 0 0 1 0.128 64.170666M466.149973 799.146667a396.074667 396.074667 0 0 1-267.008-118.4 394.24 394.24 0 0 1-95.701333-159.573334 443.178667 443.178667 0 0 0 362.709333 277.973334M890.427307 123.306667l-50.474667 50.474666a41.856 41.856 0 0 0-10.624 18.005334 383.658667 383.658667 0 0 0-133.248-137.898667 41.088 41.088 0 0 0 14.506667-9.429333l52.565333-52.48a445.952 445.952 0 0 1 127.274667 131.328M114.661973 379.946667a382.08 382.08 0 0 0 761.6 44.288 392.96 392.96 0 0 1-114.986666 259.797333A393.258667 393.258667 0 0 1 466.149973 799.104a442.965333 442.965333 0 0 1-362.666666-277.930667c-42.453333-136.021333-10.24-290.56 96.469333-397.653333a394.666667 394.666667 0 0 1 119.850667-82.346667 382.08 382.08 0 0 0-205.141334 338.773334M477.883307 79.36a321.408 321.408 0 1 0 0 642.816 321.408 321.408 0 0 0 0-642.816m351.488 112.469333a42.24 42.24 0 0 0 3.114666 30.890667 397.312 397.312 0 0 1 43.818667 201.557333C854.331307 614.4 692.795307 762.026667 496.78464 762.026667a382.08 382.08 0 0 1-176.938667-720.810667 396.970667 396.970667 0 0 1 341.845334 10.709333 42.112 42.112 0 0 0 34.346666 2.005334 383.829333 383.829333 0 0 1 133.333334 137.898666M459.067307 160.853333a260.736 260.736 0 1 0 0 521.514667 260.736 260.736 0 0 0 0-521.514667M477.883307 722.176a321.408 321.408 0 1 1 0-642.816 321.408 321.408 0 0 1 0 642.816M440.20864 242.346667a200.064 200.064 0 1 0 0 400.085333 200.064 200.064 0 0 0 0-400.085333m18.858667 439.978666a260.693333 260.693333 0 1 1 0-521.514666 260.736 260.736 0 0 1 0 521.514666M421.349973 323.84a139.392 139.392 0 1 0-0.042666 278.741333 139.392 139.392 0 0 0 0.042666-278.784m18.901334 318.677334a200.106667 200.106667 0 1 1 0-400.213334 200.106667 200.106667 0 0 1 0 400.213334M281.957973 463.232a139.392 139.392 0 1 1 278.784-0.085333 139.392 139.392 0 0 1-278.784 0.085333M482.277973 799.488c-102.570667 0-205.226667-39.637333-283.178666-118.784-152.021333-154.453333-151.594667-404.181333 0.853333-557.141333a393.173333 393.173333 0 0 1 279.466667-115.925334 396.629333 396.629333 0 0 1 182.272 44.288 41.685333 41.685333 0 0 0 48.938666-7.466666l75.221334-75.136a45.226667 45.226667 0 0 1 64.085333 0.128l65.066667 65.024a45.269333 45.269333 0 0 1 0.128 64.128l-75.178667 75.178666a41.984 41.984 0 0 0-7.466667 48.981334c77.141333 149.034667 53.504 336.64-71.168 461.226666A393.386667 393.386667 0 0 1 482.277973 799.530667m0-18.176a374.656 374.656 0 0 0 266.197334-110.122667 376.106667 376.106667 0 0 0 71.125333-98.986667c17.450667-35.285333 29.269333-73.088 34.986667-112.298666a379.52 379.52 0 0 0-38.229334-228.821334 59.946667 59.946667 0 0 1 10.752-70.186666l75.136-75.178667a27.178667 27.178667 0 0 0-0.085333-38.4l-65.066667-65.066667a27.136 27.136 0 0 0-38.4-0.085333L723.47264 57.258667a59.306667 59.306667 0 0 1-42.325333 17.536c-9.6 0-19.2-2.346667-27.776-6.741334a380.074667 380.074667 0 0 0-173.952-42.24 375.381333 375.381333 0 0 0-266.538667 110.506667C67.429973 282.24 67.131307 520.704 212.069973 668.032a375.509333 375.509333 0 0 0 126.293334 84.906667A376.576 376.576 0 0 0 482.277973 781.312M483.557973 612.096a202.069333 202.069333 0 1 0 0-404.181333 202.069333 202.069333 0 0 0 0 404.181333M168.123307 501.76a18.176 18.176 0 0 0-16.213334 26.496l5.162667 10.112a18.176 18.176 0 0 0 32.426667-16.597333l-5.162667-10.069334a18.176 18.176 0 0 0-16.213333-9.941333m36.010666 62.421333a18.346667 18.346667 0 0 0-10.453333 3.242667 18.346667 18.346667 0 0 0-4.48 25.386667C232.549973 654.933333 280.20864 690.346667 282.213973 691.797333a18.176 18.176 0 1 0 21.589334-29.269333c-0.768-0.597333-45.226667-33.877333-84.736-90.581333a18.261333 18.261333 0 0 0-14.933334-7.765334"  horiz-adv-x="1024" />

    
    <glyph glyph-name="tuiguang" unicode="&#58887;" d="M372.224 566.272L208.896 414.72h-107.52v-163.84c0-35.328 28.672-64 64-64h212.48l107.52-99.328V606.72c-0.512 34.816-58.368 10.24-113.152-40.448zM571.904 651.776V117.76l-138.752 128.512-23.552 22.016H183.296V501.76H409.6l23.552 22.016 138.752 128m66.048 140.288c-20.992 0-59.904-22.528-96.768-56.832L377.856 583.68H165.376c-35.328 0-64-28.672-64-64V250.88c0-35.328 28.672-64 64-64h212.48l163.84-151.552c36.864-34.304 75.776-56.832 96.768-56.832 10.24 0 15.872 5.12 15.872 16.384V775.68c0 11.264-6.144 16.384-16.384 16.384z m244.224-448h-87.04c-22.528 0-40.96 18.432-40.96 40.96s18.432 40.96 40.96 40.96h87.04c22.528 0 40.96-18.432 40.96-40.96-0.512-22.528-18.432-40.96-40.96-40.96z m-1.536-370.176c-10.752 0-21.504 4.096-29.184 11.776l-90.112 90.112c-15.36 16.384-14.848 42.496 1.536 57.856 15.872 14.848 40.448 14.848 56.32 0l90.112-90.112c15.872-15.872 15.872-41.984 0-57.856-7.168-7.168-17.92-11.776-28.672-11.776zM795.136 626.688c-22.528 0-40.96 18.432-40.96 40.96 0 10.752 4.096 21.504 11.776 29.184l85.504 85.504c15.872 15.872 41.984 15.872 57.856 0s15.872-41.984 0-57.856L824.32 638.464c-7.68-7.68-18.432-11.776-29.184-11.776z"  horiz-adv-x="1024" />

    
    <glyph glyph-name="jia1" unicode="&#59164;" d="M552.96-128H471.552c-62.464 0-112.64 50.688-112.64 112.64V783.36c0 62.464 50.688 112.64 112.64 112.64h81.408c62.464 0 112.64-50.688 112.64-112.64v-798.72c0-61.952-50.176-112.64-112.64-112.64zM0 343.04V424.96c0 62.464 50.688 112.64 112.64 112.64h798.208c62.464 0 112.64-50.688 112.64-112.64v-81.92c0-62.464-50.688-112.64-112.64-112.64H113.152C50.688 230.4 0 281.088 0 343.04z"  horiz-adv-x="1027" />

    
    <glyph glyph-name="book-2" unicode="&#58881;" d="M32 548.8h204.8v-614.4H32zM32 816h204.8v-235.2H32zM0 848v-944h268.8V848H0z m32-913.6V548.8h204.8v-614.4H32z m204.8 646.4H32V816h204.8v-235.2zM368 548.8h204.8v-614.4H368zM368 816h204.8v-235.2H368zM336 848v-944h268.8V848H336z m32-913.6V548.8h204.8v-614.4H368z m204.8 646.4H368V816h204.8v-235.2zM931.2 598.4L910.4 832l-203.2-19.2 20.8-232zM988.8-44.8l-54.4 611.2-203.2-17.6L785.6-64zM939.2 865.6L672 843.2l84.8-940.8L1024-75.2 939.2 865.6zM910.4 832l20.8-233.6-203.2-17.6-20.8 232L910.4 832z m24-265.6l54.4-611.2-203.2-19.2-54.4 612.8 203.2 17.6z"  horiz-adv-x="1024" />

    
    <glyph glyph-name="tuisong" unicode="&#59028;" d="M511.4-126.6c-16.3 0-29.5 13.2-29.5 29.5V768.1c0 16.3 13.2 29.5 29.5 29.5s29.5-13.2 29.5-29.5v-865.2c0.2-16.3-13.2-29.5-29.5-29.5z m0 0M944.1 305.9H78.9c-16.3 0-29.5 13.2-29.5 29.5s13.2 29.5 29.5 29.5h865.2c16.3 0 29.5-13.2 29.5-29.5s-13.2-29.5-29.5-29.5z m0 0M849.6-126.6H173.4c-68.4 0-124 55.7-124 124V673.6c0 68.4 55.7 124 124 124h676.1c68.4 0 124-55.7 124-124v-338.1c0-16.3-13.2-29.5-29.5-29.5s-29.5 13.2-29.5 29.5V673.6c0 35.9-29.1 65-65 65H173.4c-35.9 0-65-29.1-65-65v-676.1c0-35.9 29.1-65 65-65h676.1c35.9 0 65 29.1 65 65v128c0 16.3 13.2 29.5 29.5 29.5s29.5-13.2 29.5-29.5v-128.2c0.1-68.2-55.6-123.9-123.9-123.9z m0 0M285.7 38.2c-39.5 0-71.6 32.1-71.6 71.6V561.2c0 39.5 32.1 71.6 71.6 71.6h451.5c39.5 0 71.6-32.1 71.6-71.6v-451.5c0-39.5-32.1-71.6-71.6-71.6H285.7z m0 0M737.2 8.5H285.7c-55.8 0-101.1 45.3-101.1 101.1V561.2c0 55.8 45.3 101.1 101.1 101.1h451.5c55.8 0 101.1-45.3 101.1-101.1v-451.5c0-55.7-45.3-101.2-101.1-101.2zM285.7 603.3c-23.2 0-42.1-18.9-42.1-42.1v-451.5c0-23.2 18.9-42.1 42.1-42.1h451.5c23.2 0 42.1 18.9 42.1 42.1V561.2c0 23.2-18.9 42.1-42.1 42.1H285.7z m0 0M711.8 768.1H311.2V817.5c0 25.8 20.9 46.6 46.6 46.6h307.5c25.8 0 46.6-20.9 46.6-46.6v-49.4z m0 0M711.8 738.6H311.2c-16.3 0-29.5 13.2-29.5 29.5V817.5c0 42 34.1 76.1 76.1 76.1h307.5c42 0 76.1-34.1 76.1-76.1v-49.4c-0.1-16.3-13.3-29.5-29.6-29.5z m-371.1 59h341.6V817.5c0 9.5-7.7 17.1-17.1 17.1H357.7c-9.5 0-17.1-7.7-17.1-17.1v-19.9z m0 0M512.8 255.8l145.5 96.3-145.5 96.3v-47.2H368.1v-97h144.7v-48.4z m0 0"  horiz-adv-x="1024" />

    
    <glyph glyph-name="taiyang" unicode="&#58880;" d="M839.646111 21.335687h-655.17926c-18.751682 0-33.888582 15.1369-33.888583 33.888582v655.179261c0 18.751682 15.1369 33.888582 33.888583 33.888583h655.17926c18.751682 0 33.888582-15.1369 33.888583-33.888583v-655.179261c0-18.63872-15.249862-33.888582-33.888583-33.888582z m-265.686486 642.753447c-207.398125 42.699614-387.007612-136.909873-344.307998-344.307998 22.931274-111.15455 110.137893-198.361169 221.292444-221.292443C658.342195 55.789079 837.951682 235.398566 795.252068 442.796691c-22.931274 111.041589-110.250855 198.361169-221.292443 221.292443z m425.30171-304.093547L536.004413-103.261335c-13.216547-13.216547-34.679316-13.216547-47.895864 0L24.738665 359.995587c-13.216547 13.216547-13.216547 34.679316 0 47.895864L487.995587 871.261335c13.216547 13.216547 34.679316 13.216547 47.895864 0L999.261335 408.004413c13.216547-13.329509 13.216547-34.792278 0-48.008826zM308.95091 587.6139c-111.606398-111.606398-112.84898-291.893657-3.727744-405.081523 113.300827-117.593381 303.076889-117.593381 416.377717 0 109.121236 113.187865 107.878654 293.475124-3.727745 405.081523-112.84898 112.961942-295.960287 112.961942-408.922228 0zM535.439603 608.850745C389.944622 624.439493 268.284611 502.892443 283.873359 357.284501c11.296194-105.619415 95.452841-189.776062 201.072256-201.185218 145.494981-15.588748 267.154992 105.958301 251.566244 251.566244-11.296194 105.732377-95.452841 189.776062-201.072256 201.185218z"  horiz-adv-x="1024" />

    
    <glyph glyph-name="huo" unicode="&#58904;" d="M431.650399-120.541209C348.536967-110.951197 96-43.821118 96 231.092543c41.556716 319.667047 396.387138 246.143626 345.240411 661.710787 239.750285-95.900114 271.71699-233.356944 252.536967-428.353843 51.146727 31.966705 73.523421 86.310103 73.52342 86.310102 166.226864-118.276807 313.273706-565.810673-166.226864-671.300798-3.19667 0-76.720091-9.590011-169.423535 0M498.780479 384.532725c-22.376693-31.966705-342.04374-182.210217-73.523421-508.270604 73.523421-9.590011 166.226864 0 166.226865 0s63.933409 95.900114 41.556716 204.58691c-19.180023 89.506773-150.243512 76.720091-134.26016 303.683694"  horiz-adv-x="1024" />

    
    <glyph glyph-name="yueliang" unicode="&#58936;" d="M873.83 22.17c-199.919-199.92-524.032-199.92-723.95 0-45.125 45.124-79.514 96.785-104.278 151.722 188.4-84.838 417.417-50.449 572.177 104.329C772.54 432.98 806.946 661.999 722.091 850.398c54.954-24.764 106.598-59.153 151.74-104.277 199.918-199.92 199.918-524.032 0-723.951zM498.108 385.519l-22.614-36.37-5.632 42.275-42.137 9.933 39.117 18.33-3.414 42.495 29.799-30.941 40.021 16.35-20.685-37.462 28.16-32.41-42.615 7.8z m-7.441 141.039L364.85 586.667l-101.086-96.034 18.296 138.222-122.59 66.458 137.114 25.327L321.91 857.754 388.37 735.18l138.24 18.278-96.051-101.086 60.109-125.815zM251.05 304.777l-34.031-54.563-8.465 63.42-63.369 14.9 58.829 27.494-5.154 63.76 44.834-46.438 60.194 24.525-31.13-56.2 42.36-48.606-64.068 11.708z"  horiz-adv-x="1024" />

    
    <glyph glyph-name="shu" unicode="&#58882;" d="M935.766016 38.0416a189.4912 189.4912 0 0 0 30.72 103.7312 38.3488 38.3488 0 0 1 6.144 24.064V701.44a170.7008 170.7008 0 0 1-170.496 170.496H221.321216a170.7008 170.7008 0 0 1-170.496-170.496v-655.616a170.7008 170.7008 0 0 1 170.496-170.496H931.567616l2.4576-0.1024c5.1712 0 10.24 1.024 15.0016 3.072h0.1536a41.5232 41.5232 0 0 1 2.816 1.3312l0.768 0.4096a46.2336 46.2336 0 0 1 2.048 1.2288l0.1536 0.1024 0.1536 0.1024a38.5024 38.5024 0 0 1 9.728 55.3984 189.5424 189.5424 0 0 0-29.0816 101.2224zM221.321216 794.8288h4.9664v-593.408h-20.4288a154.112 154.112 0 0 1-78.0288-21.1456V701.3376a93.5936 93.5936 0 0 0 93.4912 93.4912z m-93.4912-749.056v0.6144c0 43.0592 34.9696 77.9776 78.0288 78.0288h52.48a38.1952 38.1952 0 0 1 12.9024 0h601.8048c-5.3248-15.5648-9.1648-31.5904-11.52-47.872H206.473216a38.5024 38.5024 0 1 1 0-77.0048h655.0528a266.24 266.24 0 0 1 11.3152-47.3088H221.321216a93.5936 93.5936 0 0 0-93.4912 93.5424z"  horiz-adv-x="1024" />

    
    <glyph glyph-name="shijian01" unicode="&#58913;" d="M511.705799 790.099065c-224.283136 0-406.100088-181.816952-406.100088-406.100088 0-224.282113 181.816952-406.100088 406.100088-406.100088 224.282113 0 406.100088 181.817975 406.100088 406.100088C917.804864 608.282113 735.987912 790.099065 511.705799 790.099065zM185.777659 355.223606c-16.018835 0-29.006637 12.987802-29.006637 29.007661 0 16.020882 12.987802 29.008684 29.006637 29.008684 16.020882 0 29.007661-12.987802 29.007661-29.008684C214.786343 368.211409 201.798541 355.223606 185.777659 355.223606zM511.704776 738.933755c16.020882 0 29.008684-12.987802 29.008684-29.008684 0-16.019859-12.986779-29.007661-29.008684-29.007661-16.018835 0-29.006637 12.987802-29.006637 29.007661C482.698139 725.946976 495.685941 738.933755 511.704776 738.933755zM511.704776 26.326854c-16.018835 0-29.006637 12.987802-29.006637 29.007661 0 16.020882 12.987802 29.008684 29.006637 29.008684 16.020882 0 29.008684-12.986779 29.008684-29.008684C540.712437 39.314657 527.725658 26.326854 511.704776 26.326854zM750.079862 558.688601 593.600995 412.442796c12.411681-31.403221 5.92392-68.547189-19.47454-93.946672-34.121122-34.121122-89.443102-34.121122-123.564223 0-25.495674 25.494651-31.937386 62.824861-19.333324 94.304829l-107.706047 97.472985c-13.419637 13.419637-13.418614 35.176151-0.001023 48.593741 13.419637 13.419637 35.176151 13.419637 48.594765 0l107.707071-97.472985c20.947078 8.385994 44.482097 8.341992 65.398476-0.13917l156.260903 146.028864c13.418614 13.418614 35.177174 13.418614 48.595788 0C763.498476 593.864752 763.498476 572.108239 750.079862 558.688601zM837.631894 354.992339c-16.018835 0-29.006637 12.986779-29.006637 29.006637 0 16.020882 12.986779 29.008684 29.006637 29.008684 16.020882 0 29.008684-12.987802 29.008684-29.008684C866.639554 367.980141 853.652775 354.992339 837.631894 354.992339z"  horiz-adv-x="1024" />

    
    <glyph glyph-name="icon4" unicode="&#58906;" d="M686.184111 717.827041c-73.571622 0-137.337925-38.749536-174.123736-96.429213-36.886095 57.679677-100.647281 96.429213-174.122713 96.429213-114.675786 0-207.668737-92.897783-207.668737-207.573569 0-29.623691 4.611018-57.679677 15.790638-83.184561 77.006861-174.911682 208.065779-323.133491 366.000811-427.51277 157.839865 104.379279 288.899806 252.601088 365.976252 427.51277 11.18576 25.504884 15.69547 53.56087 15.69547 83.184561C893.732098 624.929258 800.858874 717.827041 686.184111 717.827041z"  horiz-adv-x="1024" />

    
    <glyph glyph-name="ai-eye" unicode="&#58985;" d="M1023.997 384.169c0-99.79-211.129-312.67-511.999-312.67-293.211 0-511.998 209.376-511.998 312.67 0 103.279 219.73 312.334 511.999 312.334 303.234-0.001 512.071-209.057 511.999-312.335v0.001zM512.45 639.471c-136.266 0-246.73-114.384-246.73-255.471 0-141.089 110.463-255.471 246.729-255.471 136.307 0 246.774 114.383 246.774 255.471-0 141.087-110.467 255.471-246.773 255.471v0zM511.999 547.099c-86.778 0-157.126-72.827-157.126-162.673 0-89.836 70.348-162.677 157.126-162.677s157.097 72.841 157.097 162.677c0 89.847-70.32 162.673-157.097 162.673v0z"  horiz-adv-x="1024" />

    
    <glyph glyph-name="pinglun2" unicode="&#59012;" d="M337.36192-18.688c-3.5584 0-7.13728 0.75776-10.496 2.304-8.89856 4.096-14.61248 12.99968-14.61248 22.8096L312.25344 113.4592c0 13.29152-10.81344 24.09984-24.12544 24.09984l-122.88 0c-41.00096 0-74.35264 33.3568-74.35264 74.33216L90.89536 660.3008c0 40.9856 33.35168 74.33728 74.35264 74.33728l708.80768 0c40.97536 0 74.32704-33.35168 74.32704-74.33728l0-448.41472c0-40.97536-33.35168-74.33216-74.32704-74.33216l-336.19968 0c-5.76 0-11.35104-2.048-15.73888-5.8368l-168.41728-144.3584C349.06112-16.62464 343.24992-18.688 337.36192-18.688z"  horiz-adv-x="1024" />

    
    <glyph glyph-name="guanyuwo" unicode="&#58923;" d="M146.048 91.424V698.912a130.176 130.176 0 0 0 130.176 130.176H213.6a130.176 130.176 0 0 1-130.176-130.176v-607.488a130.176 130.176 0 0 1 130.176-130.176h62.624a130.176 130.176 0 0 0-130.176 130.176zM782.88 205.696a100.576 100.576 0 1 1-18.656 0 205.824 205.824 0 0 1-196.512-205.6c0-14.272 1.408-25.344 4.192-38.816h403.488a152.32 152.32 0 0 1 4 38.816 205.824 205.824 0 0 1-196.512 205.6zM645.76 225.248a150.592 150.592 0 0 0-22.784 80.096 150.752 150.752 0 0 0 150.592 150.592c27.52 0 53.28-7.552 75.52-20.512V698.912a130.176 130.176 0 0 1-130.176 130.176H318.656A130.176 130.176 0 0 1 188.48 698.912v-607.488a130.176 130.176 0 0 1 130.176-130.176h204.928a276.832 276.832 0 0 0-3.744 44.576 253.248 253.248 0 0 0 125.92 219.424zM567.712 758.272c0 23.456 17.6 42.624 39.104 42.624h120.416c21.504 0 39.072-19.168 39.072-42.624v-188.224s-4.128-42.624-18.784-42.624-60.768 128.544-80.512 128.544c-19.776 0-51.488-128.544-72.192-128.544-20.704 0-27.104 42.624-27.104 42.624V758.272z"  horiz-adv-x="1024" />

    
    <glyph glyph-name="shouye" unicode="&#58963;" d="M805.69344-77.0048a93.184 93.184 0 0 0-4.66944 0.1024H203.264c-40.0384 0-63.08864 16.8704-75.3664 31.01696-26.92608 31.0016-24.76032 73.0368-23.552 84.70016v359.5264h64v-363.90912l-0.29696-1.88416c-0.76288-6.4-0.83456-26.27584 8.28928-36.608 1.93024-2.18624 7.80288-8.83712 26.9312-8.83712h600.30976l0.74752-0.08192c2.1504-0.0768 22.31808-0.4352 34.9952 11.55584 8.45312 7.99232 12.74368 21.21216 12.74368 39.29088v360.7552h64v-360.7552c0-45.8752-18.24768-72.3712-33.55648-86.528-27.53536-25.46176-62.4128-28.34944-76.81536-28.34944zM136.35072 368.3072H37.9904A32 32 0 0 0 16.76288 424.2432l472.2176 419.09248a32 32 0 0 0 42.22464 0.22528l478.78144-415.79008a32 32 0 0 0-20.06528-56.14592l-104.93952-3.01568a32 32 0 0 0-1.83808 63.9744l22.9376 0.66048-395.62752 343.5776L122.2656 432.31232h14.08a32 32 0 0 0 0-64z m266.6496-413.51168a26.99776 26.99776 0 0 0-27.00288 26.99776v225.8432c0 4.86912 1.23904 24.90368 20.0192 43.99616 22.80448 23.17312 61.46048 34.92352 114.90304 34.92352 52.63872 0 90.88-11.90912 113.65376-35.39968 19.2256-19.82976 20.46464-40.704 20.4288-46.24384v-222.25408a26.99776 26.99776 0 1 0-54.00064 0v221.93664c-0.1792 1.16224-1.31072 6.10304-8.01792 11.54048-7.56736 6.13376-26.99776 16.41984-72.064 16.41984-52.2752 0-70.84544-13.14304-76.40576-18.7904-2.72896-2.77504-3.87584-5.14048-4.35712-6.6304a7.8848 7.8848 0 0 1-0.1536-0.54784v-224.7936a26.99776 26.99776 0 0 0-27.00288-26.99776z m6.99904 215.19872L400.9984-35.9936l-237.99808 12.99968-16.9984 254.0032 4.99712 165.99552-70.99904 22.99904 429.0048 389.00224 422.99392-368.9984-42.99776-41.00096-18.00192-370.00192-16.9984-57.00096-224-7.99744-3.99872 148.99712-14.0032 100.00384-28.00128 22.99904-54.99904 9.00096-67.9936-6.00064-42.00448-6.00064z"  horiz-adv-x="1024" />

    
    <glyph glyph-name="tuijian" unicode="&#58967;" d="M512 895.994C229.234 895.994 0.006 666.766 0.006 384c0-282.767 229.228-511.994 511.994-511.994 282.767 0 511.994 229.228 511.994 511.994S794.767 895.994 512 895.994z m315.817-827.811c-41.039-41.039-88.811-73.251-141.987-95.743-55.02-23.273-113.506-35.073-173.83-35.073-60.324 0-118.809 11.8-173.83 35.072-53.177 22.492-100.948 54.704-141.987 95.743-41.04 41.039-73.252 88.811-95.744 141.987C77.167 265.191 65.367 323.676 65.367 384c0 60.324 11.8 118.809 35.072 173.83 22.492 53.177 54.705 100.948 95.744 141.987 41.039 41.04 88.811 73.252 141.987 95.744C393.191 818.833 451.676 830.633 512 830.633c60.324 0 118.81-11.8 173.83-35.072 53.177-22.492 100.948-54.705 141.987-95.744s73.251-88.811 95.743-141.987c23.272-55.021 35.072-113.506 35.072-173.83 0-60.324-11.8-118.809-35.072-173.83-22.492-53.177-54.704-100.948-95.743-141.987zM379.439 586.186l-5.354-53.56h66.948c-1.799 1.758-3.599 6.235-5.355 13.39-1.8 14.269-2.679 27.658-2.679 40.169h144.612c0-28.579-1.8-46.446-5.356-53.56h66.949c-5.355 16.068-7.155 33.893-5.355 53.56H724.9c35.691-1.799 63.35-3.599 83.017-5.355v53.56c-14.311-3.6-41.969-5.356-83.017-5.356h-91.052v13.39c0 14.268 1.757 26.78 5.355 37.491 1.758 3.557 2.679 6.235 2.679 8.034-3.599 1.757-26.779 3.557-69.628 5.356 3.557-7.155 5.356-23.224 5.356-48.204v-16.067H432.999v16.067c0 12.469 2.679 23.181 8.034 32.136 1.758 1.757 2.678 3.557 2.678 5.356-5.355 1.757-28.578 4.435-69.626 8.034 3.556-14.311 5.354-30.379 5.354-48.203v-13.39H312.49c-39.291-1.799-69.626 0-91.051 5.356v-53.56c23.181 3.556 53.56 5.355 91.051 5.355h66.949zM660.629 283.576v18.742c32.135 19.625 56.237 33.018 72.306 40.172 14.268 7.113 34.813 10.711 61.592 10.711v56.238c-21.423-5.356-49.124-7.156-83.017-5.356H532.086c-14.312 0-31.258 0.878-50.882 2.678-12.512 1.757-21.425 2.678-26.78 2.678v-53.561h8.034c24.979 3.559 49.082 5.357 72.306 5.357H684.73c-23.224-14.311-49.124-27.699-77.66-40.168v-37.492h-96.408c-39.29-1.801-66.95 0-83.017 5.355v-53.559c8.911 1.756 18.745 2.674 29.457 2.674 8.913 1.756 26.78 2.682 53.56 2.682h96.408v-77.666c3.556-23.223-22.345-30.334-77.662-21.424 12.469-19.623 21.423-41.922 26.779-66.945 67.828 8.955 102.642 23.225 104.442 42.848V240.729h77.66c32.137 0 58.916-1.799 80.34-5.355v53.559c-10.712-3.598-37.491-5.355-80.34-5.355h-77.66zM398.186 374.627c3.558 5.355 10.713 13.39 21.425 24.1a18678.129 18678.129 0 0 1 48.203 61.594h251.73c35.692 0 64.272-1.799 85.695-5.356v53.561c-21.423-5.356-51.803-7.157-91.051-5.356H494.594c5.355 10.711 13.39 19.624 24.102 26.779 3.557 1.757 6.234 4.436 8.034 8.034l-37.491 10.712c-8.956 3.556-18.746 7.113-29.459 10.711-3.599-12.511-12.511-31.257-26.78-56.237H309.813c-32.137-1.801-59.838-0.922-83.018 2.678-1.8 0-2.679 0.877-2.679 2.678v-53.561h5.356c23.181 3.557 49.961 5.356 80.34 5.356h96.407c-62.515-83.938-129.465-144.608-200.85-182.1a557.074 557.074 0 0 0 45.527-45.529c41.048 32.135 71.383 62.473 91.05 91.051v-166.035c0-37.49-1.799-63.346-5.355-77.656h66.949c-5.356 8.953-7.155 33.934-5.356 74.982V374.627z"  horiz-adv-x="1024" />

    
    <glyph glyph-name="icon" unicode="&#58898;" d="M348.22275322 634.4900064799999c-10.15737088 3.80901297-21.5844127 8.88769987-34.28112563 13.9663867 1.26967099 0 2.53934201 0 3.80901303 1.26967099 12.69671286 3.80901297 19.04507074 16.50572871 16.50572872 29.2024416 0 2.53934201-1.26967099 5.07868684-2.53934203 7.61802606-1.26967099 3.80901297-6.34835783 12.69671286-10.15737371 22.85408654-49.51718332 114.27042439-72.37126713 158.70892091-85.06797996 171.40563377-22.85408377 22.85408377-52.05652535 34.28112846-83.79831178 34.28112847s-60.94422524-12.69671286-83.79830894-34.28112847c-22.85408377-22.85408377-34.28112846-52.05652535-34.28112848-83.79830896s12.69671286-60.94422524 34.28112848-83.79831177c38.09014143-38.09014143 223.46216193-111.73107954 260.28262954-125.69746629 2.53934201-1.26967099 6.34835783-1.26967099 8.88769989-1.26967099 10.15737088 0 19.04507074 6.34835783 22.85408657 15.23605768 6.34835783 13.9663839 0 27.93277059-12.6967157 33.01145467z m-242.50723267 115.54009538c-12.69671286 12.69671286-20.31474172 30.47211262-20.31474176 48.24751232s7.61802885 35.55079946 20.31474176 48.24751234 30.47211262 20.31474172 48.24751236 20.31474172 35.55079946-7.61802885 48.2475123-19.0450707c12.69671286-13.9663839 59.67455421-121.88845326 74.91061192-157.43924989 3.80901297-7.61802885 6.34835783-15.23605771 8.88769984-19.04507072 1.26967099-2.53934201 3.80901297-7.61802885 7.61802886-12.6967129-78.71962494 30.47211262-170.13596276 72.37126713-187.91136528 91.41633783zM1071.93543538 338.65657748l-339.00225454 339.00225731c-30.47211262 30.47211262-90.14666677 54.5958702-135.85483712 54.59586733h-6.34835784l-266.63098741-13.96638388c-48.24751237-2.53934201-88.87699585-43.16882548-91.41634067-91.41634065l-13.96638384-266.6309874c-2.53934201-45.70817036 21.5844127-110.46140853 54.59587012-142.20319498l339.00225455-339.00225453c16.50572871-16.50572871 39.35981247-25.39342855 62.21389903-25.39342861 24.12375473 0 45.70817036 8.88769987 62.21389621 25.39342861l335.19324151 335.1932415c16.50572871 16.50572871 25.39342855 39.35981247 25.39342857 62.21389626 0 24.12375473-8.88769987 45.70817036-25.39342857 62.21389904z m-700.85859561 241.23756161c-8.88769987-8.88769987-20.31474172-12.69671286-31.74178643-12.69671567s-22.85408377 5.07868684-31.74178361 12.69671567c-17.77539973 17.77539973-17.77539973 45.70817036 0 63.48356726 8.88769987 8.88769987 20.31474172 12.69671286 31.74178361 12.69671286s22.85408377-5.07868684 31.74178643-12.69671286c17.77539973-17.77539973 17.77539973-45.70817036 0-63.48356726z m387.24976685-300.9121159l85.06798279-85.06798275c5.07868684-5.07868684 3.80901297-12.69671286-1.26967102-17.77539972l-62.21389622-62.21389621c-5.07868684-5.07868684-13.9663839-6.34835783-17.77539972-1.26967104l-85.06798279 85.06797998c-2.53934201 2.53934201-8.88769987 2.53934201-11.42704186 0l-85.06798283-85.06797998c-5.07868684-5.07868684-12.69671286-3.80901297-17.77539968 1.26967104l-60.94422519 60.94422523c-5.07868684 5.07868684-6.34835783 15.23605771-2.53934203 19.0450707l85.06797999 85.06798275c3.80901297 3.80901297 3.80901297 8.88769987 0 11.42704192l-85.06797999 85.06798284c-2.53934201 2.53934201-3.80901297 5.07868684-2.53934487 8.88769701 0 3.80901297 1.26967099 7.61802885 3.80901588 10.15737366l62.21389621 62.21389621c2.53934201 2.53934201 6.34835783 5.07868684 10.15737085 5.07868404 2.53934201 0 6.34835783-1.26967099 7.61802883-2.53934199l85.06798283-85.06798283c2.53934201-2.53934201 8.88769987-2.53934201 11.42704186 0l86.33765379 86.33765384c5.07868684 5.07868684 12.69671286 3.80901297 17.77539972-1.26967101l62.21389624-62.21389623c2.53934201-2.53934201 3.80901297-6.34835783 5.07868684-10.15737084 0-3.80901297-1.26967099-6.34835783-2.53934481-8.88769992l-86.33765384-86.33765379c-1.26967099-1.26967099-2.53934201-3.80901297-2.539342-6.3483578s0-5.07868684 1.26967102-6.34835511z"  horiz-adv-x="1142" />

    
    <glyph glyph-name="icon-" unicode="&#58883;" d="M305.408 828.8a248.32 248.32 0 0 1-241.344-241.344 166.272 166.272 0 0 1 49.024-124.608c33.6-34.56 75.136-52.032 123.392-52.032h196.416a49.28 49.28 0 0 1 49.216 49.28V656.512c0 48.192-17.472 89.664-52.032 123.328a166.272 166.272 0 0 1-124.672 48.96z m0 0M718.592 828.8A248.448 248.448 0 0 0 960 587.456a166.336 166.336 0 0 0-49.088-124.608 166.144 166.144 0 0 0-123.392-52.032H591.168a49.408 49.408 0 0 0-49.28 49.28V656.512c0 48.192 17.472 89.664 52.032 123.328a166.4 166.4 0 0 0 124.672 48.96z m0 0M960 180.544a248.448 248.448 0 0 0-241.408-241.344 166.72 166.72 0 0 0-124.608 48.96 166.592 166.592 0 0 0-52.032 123.328v196.48c0 27.072 22.144 49.216 49.28 49.216h196.352c48.32 0 89.728-17.472 123.392-52.032A166.4 166.4 0 0 0 960 180.544z m0 0M305.408-60.8a248.32 248.32 0 0 0-241.344 241.344 166.272 166.272 0 0 0 49.024 124.608 166.272 166.272 0 0 0 123.392 52.032h196.416a49.28 49.28 0 0 0 49.216-49.216v-196.48c0-48.192-17.472-89.664-52.032-123.328a166.784 166.784 0 0 0-124.672-48.96z m0 0"  horiz-adv-x="1024" />

    


  </font>
</defs>
</svg>
